<?xml version="1.0" encoding="utf-8"?><svg xmlns="http://www.w3.org/2000/svg" xmlns:xlink="http://www.w3.org/1999/xlink" width="1366" height="162" preserveAspectRatio="xMidYMid" viewBox="0 0 1366 162" style="z-index:1;margin-right:-2px;display:block;background-repeat-y:initial;background-repeat-x:initial;animation-play-state:paused" ><g transform="translate(683,81) scale(1,1) translate(-683,-81)" style="transform:matrix(1, 0, 0, 1, 0, 0);animation-play-state:paused" ><linearGradient id="lg-0.7466054812679348" x1="0" x2="1" y1="0" y2="0" style="animation-play-state:paused" ><stop stop-color="#231f20" offset="0" style="animation-play-state:paused" ></stop>

  
<stop stop-color="#00ffff" offset="1" style="animation-play-state:paused" ></stop></linearGradient>
<path d="M 0 0 L 0 136.18 Q 113.833 171.63 227.667 137.415 T 455.333 86.0464 T 683 83.4492 T 910.667 43.463 T 1138.33 24.6871 T 1366 17.9315 L 1366 0 Z" fill="url(#lg-0.7466054812679348)" opacity="0.4" style="opacity:0.4;animation-play-state:paused" ></path>
<path d="M 0 0 L 0 142.661 Q 113.833 148.439 227.667 130.373 T 455.333 110.165 T 683 70.1952 T 910.667 46.7791 T 1138.33 42.8518 T 1366 11.6195 L 1366 0 Z" fill="url(#lg-0.7466054812679348)" opacity="0.4" style="opacity:0.4;animation-play-state:paused" ></path>
<path d="M 0 0 L 0 147.166 Q 113.833 182.189 227.667 135.921 T 455.333 100.89 T 683 79.5762 T 910.667 62.4561 T 1138.33 51.4365 T 1366 27.4567 L 1366 0 Z" fill="url(#lg-0.7466054812679348)" opacity="0.4" style="opacity:0.4;animation-play-state:paused" ></path>
<path d="M 0 0 L 0 153.655 Q 113.833 154.038 227.667 128.052 T 455.333 105.583 T 683 76.0175 T 910.667 48.4893 T 1138.33 24.4434 T 1366 7.01413 L 1366 0 Z" fill="url(#lg-0.7466054812679348)" opacity="0.4" style="opacity:0.4;animation-play-state:paused" ></path>
<path d="M 0 0 L 0 143.584 Q 113.833 156.063 227.667 130.357 T 455.333 95.744 T 683 67.1764 T 910.667 51.963 T 1138.33 25.2358 T 1366 0.529114 L 1366 0 Z" fill="url(#lg-0.7466054812679348)" opacity="0.4" style="opacity:0.4;animation-play-state:paused" ></path></g></svg>