<?xml version="1.0" standalone="no"?>
<svg xmlns:xlink="http://www.w3.org/1999/xlink" id="wave" style="transform:rotate(0deg); transition: 0.3s" viewBox="0 0 1440 260" version="1.1" xmlns="http://www.w3.org/2000/svg"><defs><linearGradient id="sw-gradient-0" x1="0" x2="0" y1="1" y2="0"><stop stop-color="rgba(20, 219, 128, 1)" offset="0%"/><stop stop-color="rgba(16, 190, 190, 1)" offset="100%"/></linearGradient></defs><path style="transform:translate(0, 0px); opacity:1" fill="url(#sw-gradient-0)" d="M0,182L30,164.7C60,147,120,113,180,117C240,121,300,165,360,190.7C420,217,480,225,540,190.7C600,156,660,78,720,69.3C780,61,840,121,900,147.3C960,173,1020,165,1080,134.3C1140,104,1200,52,1260,30.3C1320,9,1380,17,1440,21.7C1500,26,1560,26,1620,21.7C1680,17,1740,9,1800,34.7C1860,61,1920,121,1980,151.7C2040,182,2100,182,2160,164.7C2220,147,2280,113,2340,99.7C2400,87,2460,95,2520,104C2580,113,2640,121,2700,121.3C2760,121,2820,113,2880,91C2940,69,3000,35,3060,39C3120,43,3180,87,3240,112.7C3300,139,3360,147,3420,147.3C3480,147,3540,139,3600,112.7C3660,87,3720,43,3780,52C3840,61,3900,121,3960,156C4020,191,4080,199,4140,203.7C4200,208,4260,208,4290,208L4320,208L4320,260L4290,260C4260,260,4200,260,4140,260C4080,260,4020,260,3960,260C3900,260,3840,260,3780,260C3720,260,3660,260,3600,260C3540,260,3480,260,3420,260C3360,260,3300,260,3240,260C3180,260,3120,260,3060,260C3000,260,2940,260,2880,260C2820,260,2760,260,2700,260C2640,260,2580,260,2520,260C2460,260,2400,260,2340,260C2280,260,2220,260,2160,260C2100,260,2040,260,1980,260C1920,260,1860,260,1800,260C1740,260,1680,260,1620,260C1560,260,1500,260,1440,260C1380,260,1320,260,1260,260C1200,260,1140,260,1080,260C1020,260,960,260,900,260C840,260,780,260,720,260C660,260,600,260,540,260C480,260,420,260,360,260C300,260,240,260,180,260C120,260,60,260,30,260L0,260Z"/></svg>