<?xml version="1.0" encoding="utf-8"?><svg xmlns="http://www.w3.org/2000/svg" xmlns:xlink="http://www.w3.org/1999/xlink" width="1461" height="172" preserveAspectRatio="xMidYMid" viewBox="0 0 1461 172" style="z-index:1;margin-right:-2px;display:block;background-repeat-y:initial;background-repeat-x:initial;animation-play-state:paused" ><g transform="translate(730.5,86) scale(1,1) translate(-730.5,-86)" style="transform:matrix(1, 0, 0, 1, 0, 0);animation-play-state:paused" ><linearGradient id="lg-0.07287653786750536" x1="0" x2="1" y1="0" y2="0" style="animation-play-state:paused" ><stop stop-color="#231f20" offset="0" style="animation-play-state:paused" ></stop>

  
<stop stop-color="#00ffff" offset="1" style="animation-play-state:paused" ></stop></linearGradient>
<path d="M 0 0 L 0 142.524 Q 91.3125 176.164 182.625 133.624 T 365.25 83.1606 T 547.875 46.9304 T 730.5 42.0942 T 913.125 8.34292 T 1095.75 -20.9084 T 1278.38 -61.9688 T 1461 -112.435 L 1461 0 Z" fill="url(#lg-0.07287653786750536)" opacity="0.5" style="opacity:0.5;animation-play-state:paused" ></path>
<path d="M 0 0 L 0 151.476 Q 91.3125 165.147 182.625 126.755 T 365.25 82.5399 T 547.875 54.4559 T 730.5 10.1303 T 913.125 -18.1315 T 1095.75 -51.7713 T 1278.38 -89.5003 T 1461 -128.707 L 1461 0 Z" fill="url(#lg-0.07287653786750536)" opacity="0.5" style="opacity:0.5;animation-play-state:paused" ></path>
<path d="M 0 0 L 0 152.06 Q 91.3125 125.723 182.625 109.494 T 365.25 84.6496 T 547.875 50.4373 T 730.5 28.2797 T 913.125 -20.1337 T 1095.75 -52.6001 T 1278.38 -72.3965 T 1461 -130.085 L 1461 0 Z" fill="url(#lg-0.07287653786750536)" opacity="0.5" style="opacity:0.5;animation-play-state:paused" ></path>
<path d="M 0 0 L 0 147.933 Q 91.3125 164.541 182.625 120.282 T 365.25 90.161 T 547.875 37.0858 T 730.5 -1.9055 T 913.125 -27.9752 T 1095.75 -54.0106 T 1278.38 -85.8673 T 1461 -144.969 L 1461 0 Z" fill="url(#lg-0.07287653786750536)" opacity="0.5" style="opacity:0.5;animation-play-state:paused" ></path>
<path d="M 0 0 L 0 164.62 Q 91.3125 136.568 182.625 115.227 T 365.25 90.6395 T 547.875 37.8552 T 730.5 22.3537 T 913.125 -17.7211 T 1095.75 -47.8768 T 1278.38 -90.6112 T 1461 -131.326 L 1461 0 Z" fill="url(#lg-0.07287653786750536)" opacity="0.5" style="opacity:0.5;animation-play-state:paused" ></path></g></svg>